:SAMPLES-PER-SECOND 30
:FULLY-SPECIFIED
:DEGREES
128
root  4.907199905 41.41399954 0.5234022309 -10.21899414 -49.82200623 10.29302979
lowerback  6.184100151 1.655709982 -0.06966579705
upperback  1.473809958 2.218889952 1.655419946
thorax  -2.015130043 1.100980043 1.568050027
lowerneck  -7.842529774 6.89425993 -1.788249969
upperneck  14.76580048 9.232219696 2.194890022
head  5.552859783 4.541920185 1.610399961
lclavicle  0 -9.442270133e-015 7.951389973e-016
lhumerus  0.5093169808 -19.3798008 78.09320068
lradius  2.869509371e-031 -2.057853252e-031 144.3540039
lwrist  -3.531125038e-031 -1.765562519e-031 4.275770187
lhand  -1.496451383e-031 -27.76390076 20.11240005
lfingers  90 7.125020027 -90
lthumb  89.89689403 5.08795885 91.16245106
rclavicle  0 -9.442270133e-015 7.951389973e-016
rhumerus  9.094400406 31.3920002 -77.63439941
rradius  -2.578336448e-031 2.412680086e-031 136.901001
rwrist  1.412450015e-030 -1.765562519e-031 -6.845290184
rhand  -7.920061211e-032 -33.2840004 9.303460121
rfingers  -90 -7.125020027 -90
rthumb  -92.93752616 -24.25625642 -97.11982154
rfemur  -15.625 21.58189964 10.41749954
rtibia  -0 0 49.26580048
rfoot  -4.580047164e-032 -15.47970009 -5.435669899
rtoes  5.373923086 19.29304026 -105.8922705
lfemur  -12.65540028 1.378849983 -20.82060051
ltibia  -0 0 47.63710022
lfoot  -0 -5.254879951 8.910750389
ltoes  -4.250644065 -19.5611806 -102.515957
129
root  4.905422091 41.27244424 0.5570489121 -9.978027344 -49.7460022 9.973022461
lowerback  6.124899864 1.529129982 -0.1258679926
upperback  1.569159985 2.045599937 1.740849972
thorax  -1.884070039 1.013599992 1.704399943
lowerneck  -7.874559879 6.913559914 -1.697970033
upperneck  14.60210037 9.261460304 2.094719887
head  5.516039848 4.555990219 1.56438005
lclavicle  0 -9.442270133e-015 7.951389973e-016
lhumerus  -0.7687060237 -19.83749962 78.82499695
lradius  2.865949409e-031 -2.062808285e-031 144.2550049
lwrist  -1.059337512e-030 -1.765562519e-031 3.830189943
lhand  -1.496451383e-031 -27.76390076 20.11240005
lfingers  90 7.125020027 -90
lthumb  89.89689403 5.08795885 91.16245106
rclavicle  0 -9.442270133e-015 7.951389973e-016
rhumerus  8.981800079 31.11560059 -77.40910339
rradius  -2.589090496e-031 2.401136073e-031 137.1569977
rwrist  7.062250077e-031 -0 -7.110290051
rhand  -7.920061211e-032 -33.2840004 9.303460121
rfingers  -90 -7.125020027 -90
rthumb  -92.93752616 -24.25625642 -97.11982154
rfemur  -15.57149982 21.13990021 10.81770039
rtibia  -0 0 49.24489975
rfoot  -4.612683522e-032 -16.88170052 -6.003359795
rtoes  5.373923086 19.29304026 -105.8922705
lfemur  -12.09739971 1.258440018 -20.6508007
ltibia  -0 0 47.45019913
lfoot  -0 -6.916560173 8.664609909
ltoes  -4.250644065 -19.5611806 -102.515957
130
root  4.902266705 41.13444531 0.5884066811 -9.937011719 -49.72599792 9.893981934
lowerback  6.160930157 1.462849975 -0.3416770101
upperback  1.648229957 1.942829967 1.765490055
thorax  -1.827509999 0.9621300101 1.859220028
lowerneck  -7.953849792 6.91121006 -1.660300016
upperneck  14.42539978 9.242609978 2.172749996
head  5.472459793 4.556950092 1.579329967
lclavicle  0 -9.442270133e-015 7.951389973e-016
lhumerus  -1.971220016 -20.14179993 79.49330139
lradius  2.858550441e-031 -2.073049303e-031 144.0500031
lwrist  -7.062250077e-031 -3.531125038e-031 3.609440088
lhand  -1.496451383e-031 -27.76390076 20.11240005
lfingers  90 7.125020027 -90
lthumb  89.89689403 5.08795885 91.16245106
rclavicle  0 -9.442270133e-015 7.951389973e-016
rhumerus  8.706159592 30.91209984 -77.14420319
rradius  -2.598416586e-031 2.391040627e-031 137.3800049
rwrist  7.062250077e-031 -0 -7.250710011
rhand  -7.920061211e-032 -33.2840004 9.303460121
rfingers  -90 -7.125020027 -90
rthumb  -92.93752616 -24.25625642 -97.11982154
rfemur  -15.46210003 20.52449989 11.03730011
rtibia  -0 0 49.47320175
rfoot  -4.635086432e-032 -17.77149963 -6.172160149
rtoes  5.373923086 19.29304026 -105.8922705
lfemur  -11.69260025 1.361809969 -20.58289909
ltibia  -0 0 47.1853981
lfoot  -0 -8.527270317 8.317379951
ltoes  -4.250644065 -19.5611806 -102.515957
131
root  4.906599916 40.98933363 0.6200511155 -9.806030273 -49.73300171 9.599975586
lowerback  6.305640221 1.441789985 -0.2691799998
upperback  1.754430056 1.915889978 1.696359992
thorax  -1.793110013 0.9471979737 1.747419953
lowerneck  -8.088419914 6.89218998 -1.468379974
upperneck  14.29259968 9.156869888 2.409189939
head  5.452559948 4.543829918 1.618059993
lclavicle  0 -9.442270133e-015 7.951389973e-016
lhumerus  -3.001790047 -20.54870033 79.98149872
lradius  2.848713449e-031 -2.086546363e-031 143.779007
lwrist  -7.062250077e-031 -3.531125038e-031 3.592289925
lhand  -1.496451383e-031 -27.76390076 20.11240005
lfingers  90 7.125020027 -90
lthumb  89.89689403 5.08795885 91.16245106
rclavicle  0 -9.442270133e-015 7.951389973e-016
rhumerus  8.422260284 30.4951992 -77.07389832
rradius  -2.602502138e-031 2.386593107e-031 137.4779968
rwrist  7.062250077e-031 -1.765562519e-031 -7.135570049
rhand  -7.920061211e-032 -33.2840004 9.303460121
rfingers  -90 -7.125020027 -90
rthumb  -92.93752616 -24.25625642 -97.11982154
rfemur  -15.21590042 19.82500076 11.41969967
rtibia  -0 0 49.83789825
rfoot  -9.311103167e-032 -18.54120064 -6.962749958
rtoes  5.373923086 19.29304026 -105.8922705
lfemur  -11.36219978 1.523030043 -20.29899979
ltibia  -0 0 47.00460052
lfoot  -0 -9.915769577 7.898200035
ltoes  -4.250644065 -19.5611806 -102.515957
